<?xml version="1.0" standalone="no"?>
<!DOCTYPE svg PUBLIC "-//W3C//DTD SVG 20010904//EN"
 "http://www.w3.org/TR/2001/REC-SVG-20010904/DTD/svg10.dtd">
<svg version="1.0" xmlns="http://www.w3.org/2000/svg"
 width="779.000000pt" height="779.000000pt" viewBox="0 0 779.000000 779.000000"
 preserveAspectRatio="xMidYMid meet">
<metadata>
Created by potrace 1.11, written by Peter Selinger 2001-2013
</metadata>
<g transform="translate(0.000000,779.000000) scale(0.100000,-0.100000)"
fill="#000000" stroke="none">
<path d="M3728 7502 c-91 -158 -325 -561 -518 -897 -194 -335 -361 -624 -370
-640 -9 -17 -50 -87 -90 -155 -40 -69 -85 -146 -99 -172 -14 -26 -80 -140
-146 -254 -120 -207 -133 -229 -208 -359 -22 -38 -55 -96 -73 -128 -19 -33
-34 -62 -34 -66 0 -4 63 -8 139 -7 l139 0 298 515 c164 284 370 642 459 796
199 345 353 611 374 647 9 16 76 133 150 260 73 128 136 236 140 240 6 7 46
-59 202 -331 14 -26 58 -100 96 -166 38 -66 81 -140 95 -165 14 -25 49 -85 78
-135 29 -49 64 -110 78 -135 14 -25 36 -62 49 -82 12 -21 23 -39 23 -42 0 -2
52 -92 115 -200 63 -108 125 -215 138 -239 13 -23 57 -98 97 -167 40 -69 82
-141 93 -160 49 -88 115 -202 235 -410 l130 -225 141 -1 c78 0 141 1 141 4 0
4 -82 150 -117 207 -7 11 -15 27 -19 35 -4 8 -24 42 -44 75 -20 33 -50 85 -67
115 -17 30 -88 154 -158 275 -70 121 -136 235 -147 253 -10 18 -53 93 -95 165
-42 73 -84 146 -93 162 -10 17 -111 192 -225 390 -115 198 -217 376 -228 395
-21 38 -181 315 -196 340 -5 8 -43 74 -84 145 -41 72 -111 192 -154 267 l-80
137 -165 -287z"/>
<path d="M1272 4680 c-83 -51 -74 -179 15 -216 27 -12 246 -14 1258 -14 l1225
0 0 -1601 c0 -1481 1 -1603 17 -1629 52 -89 192 -74 222 24 6 19 10 620 10
1591 0 858 0 1572 0 1588 l1 27 1226 0 c1344 0 1270 -3 1307 59 35 60 18 136
-38 171 -32 20 -46 20 -2621 20 -2579 0 -2589 0 -2622 -20z"/>
<path d="M1875 4291 c-12 -20 -118 -202 -235 -406 -117 -203 -221 -382 -231
-397 -11 -15 -19 -29 -19 -32 0 -3 -22 -43 -49 -88 -26 -46 -92 -159 -146
-253 -54 -93 -112 -195 -130 -225 -17 -30 -58 -100 -90 -155 -32 -55 -68 -118
-80 -140 -13 -22 -47 -80 -76 -130 -28 -49 -65 -115 -82 -145 -16 -30 -36 -62
-43 -71 -8 -8 -14 -18 -14 -22 0 -4 -20 -40 -45 -82 l-44 -75 1527 0 1527 0 0
123 0 122 -1312 3 -1312 2 49 83 c26 45 58 101 71 123 46 80 234 406 253 437
10 18 121 210 246 427 125 217 237 411 248 430 12 19 45 78 75 130 30 52 79
136 107 185 29 50 66 113 81 141 l29 52 -141 -1 -141 0 -23 -36z"/>
<path d="M5618 4311 c3 -9 35 -65 70 -126 53 -90 188 -326 280 -486 11 -19 52
-90 92 -159 40 -69 81 -141 92 -160 11 -19 96 -165 188 -325 339 -586 420
-727 420 -731 0 -2 -589 -4 -1309 -4 l-1308 0 -1 -125 -1 -125 1524 0 c839 0
1525 2 1525 5 0 2 -33 62 -74 132 -146 254 -230 400 -299 518 -38 66 -79 136
-90 155 -10 19 -105 184 -210 365 -317 550 -518 898 -544 943 -14 24 -37 65
-52 90 l-27 47 -141 1 c-127 2 -141 0 -135 -15z"/>
<path d="M1810 676 c-71 -16 -111 -37 -162 -88 -38 -38 -84 -121 -93 -170 -11
-53 -6 -146 10 -193 51 -147 166 -224 331 -222 106 1 241 54 261 102 5 11 8
76 8 145 l0 125 -142 3 -142 3 2 -48 2 -48 83 -3 82 -3 0 -65 0 -65 -43 -19
c-99 -44 -213 -24 -278 48 -41 47 -59 99 -59 168 1 96 43 167 124 209 74 37
156 30 237 -20 l37 -24 19 22 c61 72 61 63 7 97 -80 50 -185 67 -284 46z"/>
<path d="M3534 679 c-102 -18 -193 -90 -242 -189 -24 -49 -27 -66 -26 -150 0
-74 5 -105 22 -142 30 -67 94 -133 161 -165 49 -24 68 -27 151 -28 82 0 102 4
150 26 98 47 159 121 184 224 23 93 13 183 -27 255 -74 129 -221 196 -373 169z
m185 -136 c148 -91 139 -332 -16 -411 -124 -63 -268 1 -309 137 -63 210 144
385 325 274z"/>
<path d="M5972 679 c-231 -43 -342 -323 -210 -531 62 -99 150 -143 283 -143
77 0 98 4 145 27 55 27 110 70 110 86 0 4 -16 23 -35 42 l-35 34 -22 -21 c-34
-32 -99 -62 -138 -65 -73 -5 -120 12 -170 61 -140 135 -68 382 117 407 60 8
110 -6 171 -48 l42 -29 28 32 c44 52 44 55 9 81 -84 64 -186 87 -295 67z"/>
<path d="M941 638 c-10 -24 -69 -160 -130 -302 -62 -143 -118 -274 -126 -293
l-14 -34 60 3 61 3 32 77 31 78 156 0 157 0 33 -80 33 -80 62 0 61 0 -145 335
-145 335 -54 0 c-54 0 -54 0 -72 -42z m122 -218 c70 -164 76 -147 -53 -146
-60 1 -110 2 -110 2 0 1 11 26 23 55 28 63 40 92 42 99 5 19 46 102 49 99 2
-2 24 -51 49 -109z"/>
<path d="M2465 672 c-3 -3 -5 -153 -5 -334 l0 -328 59 0 59 0 0 102 c0 57 1
109 1 116 1 8 23 12 74 12 l72 -1 35 -52 c19 -28 55 -80 80 -114 l45 -63 67 0
68 0 -37 52 c-20 29 -58 83 -85 119 -26 37 -48 69 -48 73 0 3 17 14 38 25 76
39 111 102 108 191 -4 97 -51 160 -141 190 -39 13 -378 23 -390 12z m336 -112
c45 -12 68 -38 76 -84 7 -47 -10 -88 -48 -110 -40 -24 -248 -31 -250 -9 0 7
-1 51 -1 98 0 47 1 92 1 100 1 12 19 14 94 14 50 0 108 -4 128 -9z"/>
<path d="M4160 666 c-15 -15 -13 -96 3 -97 6 -1 53 -2 102 -2 l90 -2 3 -277 2
-278 59 0 58 0 0 268 c0 148 3 274 7 280 4 7 35 10 89 9 110 -4 115 -3 115 41
1 72 19 67 -263 68 -157 0 -259 -4 -265 -10z"/>
<path d="M4957 665 c-1 -5 -3 -154 -2 -330 l0 -320 248 -3 248 -2 -3 52 -3 53
-180 1 c-99 1 -184 2 -188 3 -4 0 -6 40 -5 88 l3 87 163 -1 162 -1 1 27 c0 14
2 38 3 52 l2 27 -126 0 c-69 1 -144 1 -168 1 l-43 1 3 83 3 82 185 5 185 5 1
48 c0 26 -2 48 -5 48 -3 1 -113 2 -243 3 -155 1 -239 -2 -241 -9z"/>
<path d="M6583 671 c-5 -3 -8 -152 -8 -331 l0 -325 58 -3 57 -3 0 141 0 141
158 -3 157 -3 0 -135 0 -135 58 -3 57 -3 -2 333 -3 333 -55 0 -55 0 0 -135 0
-135 -158 -3 -157 -3 0 139 0 138 -50 0 c-27 1 -53 -2 -57 -5z"/>
</g>
</svg>
